Coordinates
version=1
nRows=12
nColumns=42
inDegrees=yes

Units are S.I. units (second, meters, Newtons, ...)
If the header above contains a line with 'inDegrees', this indicates whether rotational values are in degrees (yes) or radians (no).

endheader
time	pelvis_tilt	pelvis_list	pelvis_rotation	pelvis_tx	pelvis_ty	pelvis_tz	hip_flexion_r	hip_adduction_r	hip_rotation_r	knee_angle_r	knee_angle_r_beta	ankle_angle_r	subtalar_angle_r	mtp_angle_r	hip_flexion_l	hip_adduction_l	hip_rotation_l	knee_angle_l	knee_angle_l_beta	ankle_angle_l	subtalar_angle_l	mtp_angle_l	lumbar_extension	lumbar_bending	lumbar_rotation	sh_tx_r	sh_ty_r	sh_tz_r	sh_plane_elev_r	sh_elev_r	sh_axial_rot_r	elbow_flex_r	pro_sup_r	sh_tx_l	sh_ty_l	sh_tz_l	sh_plane_elev_l	sh_elev_l	sh_axial_rot_l	elbow_flex_l	pro_sup_l
      5.46666670	     -4.19639878	     -0.15676208	      5.20308813	      0.24495498	      0.96058051	     -0.05871630	      0.00977846	     -6.55305816	    -13.30872916	      0.42598963	      0.00743492	      1.45559379	     -7.09901546	     -7.49999987	      1.96963691	     -4.40142000	     -2.28074610	      2.19244548	      0.03826539	      8.99695903	      1.75330401	     -7.49999987	      1.62193189	      5.13457201	      3.01743270	     -0.02920041	     -0.00599823	     -0.00616117	    -13.12277545	      6.39973715	      7.46261329	     31.70899799	    108.09950621	     -0.02604663	     -0.01177641	     -0.00654669	     31.43579683	    134.33012199	     -1.30638032	     11.68696893	      6.88117417
      5.48333330	     -4.16214447	     -0.17611382	      5.24807294	      0.24488661	      0.96360415	     -0.05877473	     -0.01267875	     -6.50461156	    -13.27399842	      0.43246570	      0.00754795	      1.32260638	     -7.19313414	     -7.49999987	      1.93162633	     -4.44175805	     -2.27340197	      2.12787898	      0.03713849	      8.83142032	      1.74848129	     -7.49999987	      1.60069516	      5.14105193	      2.89146250	     -0.02848810	     -0.00639343	     -0.00618517	    -13.05207269	      6.46101651	      7.75930120	     31.72797003	    108.55694757	     -0.02609044	     -0.01227361	     -0.00660258	     31.10267031	    134.61674124	     -2.75137363	     12.71323035	      6.68627633
      5.50000000	     -4.08681697	     -0.20664861	      5.28469990	      0.24497349	      0.96367845	     -0.05905982	     -0.07701906	     -6.45488397	    -13.30412677	      0.43355451	      0.00756695	      1.21198811	     -7.20180984	     -7.49999987	      1.87755406	     -4.49368398	     -2.28825328	      2.12538841	      0.03709503	      8.78724359	      1.77149546	     -7.49999987	      1.48049306	      5.11641749	      3.01311299	     -0.02880009	     -0.00687576	     -0.00616301	    -13.15702044	      6.50709982	      7.93192810	     31.71573615	    108.45123903	     -0.02616329	     -0.01287020	     -0.00664621	     31.23559959	    135.07048729	     -2.49359700	     12.98396143	      6.78311921
      5.51666670	     -4.00726737	     -0.23258553	      5.31107868	      0.24473282	      0.96350986	     -0.05895519	     -0.15257446	     -6.42014412	    -13.31877569	      0.43724500	      0.00763136	      1.10983550	     -7.24728615	     -7.49999987	      1.79978183	     -4.52523953	     -2.23602719	      2.10117496	      0.03667242	      8.65388341	      1.74445423	     -7.49999987	      1.32265654	      5.07314786	      3.23854557	     -0.02979626	     -0.00721036	     -0.00611635	    -13.06197450	      6.49061675	      7.54579681	     31.63276289	    108.09642203	     -0.02642673	     -0.01305462	     -0.00662152	     31.73782281	    135.33096806	     -1.38027809	     12.55282907	      7.55486157
      5.53333330	     -3.91553038	     -0.22620288	      5.36013042	      0.24487165	      0.96348288	     -0.05919176	     -0.27159783	     -6.41540316	    -13.38599091	      0.43212447	      0.00754199	      0.99476469	     -7.32615063	     -7.49999987	      1.69751242	     -4.52162066	     -2.19691259	      2.08326610	      0.03635985	      8.60502219	      1.75019406	     -7.49999987	      1.17063914	      5.07145114	      2.88864793	     -0.02861674	     -0.00740071	     -0.00608004	    -12.77966603	      6.56415380	      8.14778886	     31.85341741	    106.49460173	     -0.02682873	     -0.01346077	     -0.00669120	     30.95592470	    135.67618759	     -2.51430614	     13.29064086	      8.80624621
      5.55000000	     -3.93179517	     -0.25353169	      5.33474340	      0.24468860	      0.96328555	     -0.05902245	     -0.24412297	     -6.40129536	    -13.41104316	      0.44133556	      0.00770276	      0.87768445	     -7.39779902	     -7.49999987	      1.71566412	     -4.53785055	     -2.24581285	      2.08704950	      0.03642589	      8.59469567	      1.78723280	     -7.49999987	      1.24335580	      5.09485955	      3.24591845	     -0.02938131	     -0.00730478	     -0.00611377	    -13.23952348	      6.56938582	      7.96426684	     31.64545276	    108.54685487	     -0.02599598	     -0.01338198	     -0.00668245	     31.50853201	    135.64826549	     -2.95316690	     13.51931570	      7.11084567
      5.56666670	     -3.87780869	     -0.29981258	      5.35483686	      0.24484158	      0.96341152	     -0.05936337	     -0.30788611	     -6.35498511	    -13.40856328	      0.43763048	      0.00763809	      0.75443380	     -7.52909094	     -7.49999987	      1.66441316	     -4.58172695	     -2.23356751	      2.08860438	      0.03645302	      8.57292216	      1.78578255	     -7.49999987	      1.20707296	      5.15344319	      3.19568879	     -0.02937879	     -0.00741351	     -0.00611309	    -12.93933749	      6.62814713	      7.82174840	     31.65515850	    107.92413269	     -0.02614146	     -0.01321650	     -0.00666621	     31.58347441	    135.68613485	     -3.77099394	     13.57452619	      7.29211811
      5.58333330	     -3.87385693	     -0.31200548	      5.33759353	      0.24465298	      0.96319139	     -0.05920590	     -0.31218049	     -6.36698540	    -13.49108093	      0.44492403	      0.00776539	      0.73518355	     -7.41384378	     -7.49999987	      1.66270263	     -4.58133856	     -2.16206393	      2.09935331	      0.03664063	      8.57949509	      1.71313847	     -7.49999987	      1.25579192	      5.14285156	      3.07477249	     -0.02862124	     -0.00757097	     -0.00612868	    -13.26843647	      6.60692408	      8.21630718	     31.69573310	    108.26118306	     -0.02605111	     -0.01321076	     -0.00664175	     31.51666268	    135.84504888	     -2.40310888	     13.18657688	      7.16647310
      5.60000000	     -3.90613188	     -0.33058210	      5.34557941	      0.24493745	      0.96327347	     -0.05951385	     -0.26412874	     -6.34532650	    -13.40349218	      0.44126739	      0.00770157	      0.63520575	     -7.54162906	     -7.49999987	      1.69896737	     -4.58658499	     -2.11459121	      2.10862119	      0.03680238	      8.48384308	      1.65594732	     -7.49999987	      1.38797280	      5.15781623	      3.11087469	     -0.02901644	     -0.00765725	     -0.00612043	    -12.73155876	      6.65665942	      7.80914835	     31.49951590	    107.72522139	     -0.02527486	     -0.01293441	     -0.00660158	     31.74891494	    135.91670988	     -4.12939639	     13.38178617	      7.36626055
      5.61666670	     -3.87035027	     -0.30212839	      5.32966832	      0.24472412	      0.96309285	     -0.05924528	     -0.30957094	     -6.37275819	    -13.43009941	      0.43606905	      0.00761084	      0.57230774	     -7.59487637	     -7.49999987	      1.64881916	     -4.56146334	     -2.18424662	      2.11374891	      0.03689188	      8.45667788	      1.73906085	     -7.49999987	      1.39784926	      5.06404693	      2.94221179	     -0.02856601	     -0.00772864	     -0.00612718	    -12.56615146	      6.65211409	      7.73888038	     31.61298786	    108.30920780	     -0.02540611	     -0.01297292	     -0.00658924	     31.61362883	    136.29149379	     -4.57535062	     13.37486290	      7.16854885
      5.63333330	     -3.84501435	     -0.28838973	      5.31172754	      0.24496299	      0.96311492	     -0.05951831	     -0.34014649	     -6.38742298	    -13.39995674	      0.43329228	      0.00756238	      0.46215664	     -7.75232742	     -7.49999987	      1.61965979	     -4.54305872	     -2.20821906	      2.13237422	      0.03721695	      8.44562288	      1.73440649	     -7.49999987	      1.41546740	      5.01998906	      2.80602463	     -0.02789517	     -0.00773456	     -0.00613206	    -12.46589704	      6.67052301	      7.88202064	     31.58246728	    108.03275462	     -0.02591837	     -0.01307636	     -0.00656497	     31.61814801	    136.46183810	     -3.36211532	     12.76944521	      7.63326042
      5.65000000	     -3.82422798	     -0.29370018	      5.33824261	      0.24469850	      0.96290602	     -0.05935007	     -0.36270352	     -6.37870589	    -13.52680959	      0.43214171	      0.00754230	      0.63015247	     -7.40741944	     -7.49999987	      1.61325453	     -4.53700042	     -2.02496328	      2.14995522	      0.03752380	      8.41113813	      1.61721598	     -7.49999987	      1.52967021	      4.95334598	      2.82975373	     -0.02818705	     -0.00764201	     -0.00608068	    -12.05009440	      6.72008918	      7.77620799	     31.48670808	    107.72291967	     -0.02559382	     -0.01286715	     -0.00652260	     32.14765990	    136.59588531	     -4.85054235	     12.72898061	      7.62796352
